<?xml version="1.0" standalone="no"?>
<!DOCTYPE svg PUBLIC "-//W3C//DTD SVG 20010904//EN"
 "http://www.w3.org/TR/2001/REC-SVG-20010904/DTD/svg10.dtd">
<svg version="1.0" xmlns="http://www.w3.org/2000/svg"
 width="16.000000pt" height="16.000000pt" viewBox="0 0 16.000000 16.000000"
 preserveAspectRatio="xMidYMid meet">
<metadata>
Created by potrace 1.11, written by Peter Selinger 2001-2013
</metadata>
<g transform="translate(0.000000,16.000000) scale(0.004624,-0.004624)"
fill="#000000" stroke="none">
<path d="M2015 3420 c-7 -11 -96 -36 -155 -44 -25 -4 -67 -9 -95 -13 -94 -13
-336 -7 -388 10 -47 15 -48 15 -110 -16 -34 -18 -63 -35 -65 -39 -2 -5 -9 -8
-15 -8 -7 -1 -30 -19 -52 -40 -27 -27 -68 -51 -125 -74 -184 -74 -239 -106
-324 -191 -84 -82 -161 -186 -172 -230 -3 -14 -10 -25 -15 -25 -5 0 -9 -5 -9
-10 0 -6 -18 -40 -40 -76 -22 -36 -40 -68 -40 -71 0 -10 -133 -228 -142 -234
-12 -8 26 -44 72 -70 19 -11 53 -31 75 -44 70 -44 218 -116 262 -127 l42 -10
57 56 c60 60 73 66 73 39 -1 -10 9 -52 21 -93 11 -41 22 -91 24 -110 8 -74 22
-156 30 -168 2 -4 7 -77 11 -162 3 -85 8 -182 10 -214 3 -41 -2 -77 -15 -116
-40 -120 -52 -204 -50 -350 1 -19 -7 -91 -15 -150 -7 -51 -12 -91 -19 -170
-15 -153 -18 -179 -27 -230 -11 -58 -32 -131 -54 -191 -8 -20 -12 -38 -11 -40
2 -2 7 -26 11 -54 8 -64 18 -74 63 -69 49 7 73 6 146 -6 188 -29 682 -31 996
-4 120 10 214 14 415 18 l200 4 3 57 c2 36 -4 79 -17 118 -30 96 -31 107 -16
191 14 85 14 91 -11 175 -32 107 -37 656 -7 756 4 11 5 54 3 95 -9 203 -2 476
14 555 14 69 40 155 46 155 3 0 21 -20 39 -45 27 -37 37 -45 54 -39 27 8 191
106 195 117 2 4 8 7 13 7 5 0 32 15 61 34 29 18 94 55 143 81 50 26 91 49 93
50 5 4 -160 252 -193 289 -5 6 -37 47 -69 91 -33 44 -62 82 -65 85 -4 3 -11
16 -17 30 -34 76 -179 227 -242 251 -12 5 -41 17 -65 27 -36 16 -129 54 -202
82 -11 4 -40 13 -65 20 -42 11 -124 60 -132 78 -4 10 -98 65 -115 68 -7 1 -15
-2 -18 -6z"/>
</g>
</svg>
